TITLE ""
FILE "1Q_t_0249-0258.mp3" MP3
  TRACK 01 AUDIO
    TITLE "1Q_t_0249-0258_01"
    INDEX 01 00:00:00
  TRACK 02 AUDIO
    TITLE "1Q_t_0249-0258_02"
    INDEX 01 00:01:18
  TRACK 03 AUDIO
    TITLE "1Q_t_0249-0258_03"
    INDEX 01 00:01:33
  TRACK 04 AUDIO
    TITLE "1Q_t_0249-0258_04"
    INDEX 01 00:03:32
  TRACK 05 AUDIO
    TITLE "1Q_t_0249-0258_05"
    INDEX 01 00:03:46
  TRACK 06 AUDIO
    TITLE "1Q_t_0249-0258_06"
    INDEX 01 00:06:46
  TRACK 07 AUDIO
    TITLE "1Q_t_0249-0258_07"
    INDEX 01 00:07:26
  TRACK 08 AUDIO
    TITLE "1Q_t_0249-0258_08"
    INDEX 01 00:08:43
  TRACK 09 AUDIO
    TITLE "1Q_t_0249-0258_09"
    INDEX 01 00:08:59
  TRACK 10 AUDIO
    TITLE "1Q_t_0249-0258_10"
    INDEX 01 00:10:62
  TRACK 11 AUDIO
    TITLE "1Q_t_0249-0258_11"
    INDEX 01 00:11:00
  TRACK 12 AUDIO
    TITLE "1Q_t_0249-0258_12"
    INDEX 01 00:15:43
  TRACK 13 AUDIO
    TITLE "1Q_t_0249-0258_13"
    INDEX 01 00:16:21
  TRACK 14 AUDIO
    TITLE "1Q_t_0249-0258_14"
    INDEX 01 00:17:30
  TRACK 15 AUDIO
    TITLE "1Q_t_0249-0258_15"
    INDEX 01 00:17:46
  TRACK 16 AUDIO
    TITLE "1Q_t_0249-0258_16"
    INDEX 01 00:18:51
  TRACK 17 AUDIO
    TITLE "1Q_t_0249-0258_17"
    INDEX 01 00:18:69
  TRACK 18 AUDIO
    TITLE "1Q_t_0249-0258_18"
    INDEX 01 00:23:19
  TRACK 19 AUDIO
    TITLE "1Q_t_0249-0258_19"
    INDEX 01 00:23:74
  TRACK 20 AUDIO
    TITLE "1Q_t_0249-0258_20"
    INDEX 01 00:25:12
  TRACK 21 AUDIO
    TITLE "1Q_t_0249-0258_21"
    INDEX 01 00:25:28
  TRACK 22 AUDIO
    TITLE "1Q_t_0249-0258_22"
    INDEX 01 00:27:40
  TRACK 23 AUDIO
    TITLE "1Q_t_0249-0258_23"
    INDEX 01 00:27:54
  TRACK 24 AUDIO
    TITLE "1Q_t_0249-0258_24"
    INDEX 01 00:32:04
  TRACK 25 AUDIO
    TITLE "1Q_t_0249-0258_25"
    INDEX 01 00:32:57
  TRACK 26 AUDIO
    TITLE "1Q_t_0249-0258_26"
    INDEX 01 00:33:57
  TRACK 27 AUDIO
    TITLE "1Q_t_0249-0258_27"
    INDEX 01 00:33:72
  TRACK 28 AUDIO
    TITLE "1Q_t_0249-0258_28"
    INDEX 01 00:36:10
  TRACK 29 AUDIO
    TITLE "1Q_t_0249-0258_29"
    INDEX 01 00:36:26
  TRACK 30 AUDIO
    TITLE "1Q_t_0249-0258_30"
    INDEX 01 00:41:60
  TRACK 31 AUDIO
    TITLE "1Q_t_0249-0258_31"
    INDEX 01 00:42:38
  TRACK 32 AUDIO
    TITLE "1Q_t_0249-0258_32"
    INDEX 01 00:43:59
  TRACK 33 AUDIO
    TITLE "1Q_t_0249-0258_33"
    INDEX 01 00:44:00
  TRACK 34 AUDIO
    TITLE "1Q_t_0249-0258_34"
    INDEX 01 00:46:12
  TRACK 35 AUDIO
    TITLE "1Q_t_0249-0258_35"
    INDEX 01 00:46:28
  TRACK 36 AUDIO
    TITLE "1Q_t_0249-0258_36"
    INDEX 01 00:52:09
  TRACK 37 AUDIO
    TITLE "1Q_t_0249-0258_37"
    INDEX 01 00:52:60
  TRACK 38 AUDIO
    TITLE "1Q_t_0249-0258_38"
    INDEX 01 00:54:04
  TRACK 39 AUDIO
    TITLE "1Q_t_0249-0258_39"
    INDEX 01 00:54:20
  TRACK 40 AUDIO
    TITLE "1Q_t_0249-0258_40"
    INDEX 01 00:57:28
  TRACK 41 AUDIO
    TITLE "1Q_t_0249-0258_41"
    INDEX 01 00:57:42
  TRACK 42 AUDIO
    TITLE "1Q_t_0249-0258_42"
    INDEX 01 01:04:01
  TRACK 43 AUDIO
    TITLE "1Q_t_0249-0258_43"
    INDEX 01 01:04:55
  TRACK 44 AUDIO
    TITLE "1Q_t_0249-0258_44"
    INDEX 01 01:05:69
  TRACK 45 AUDIO
    TITLE "1Q_t_0249-0258_45"
    INDEX 01 01:06:11
  TRACK 46 AUDIO
    TITLE "1Q_t_0249-0258_46"
    INDEX 01 01:07:50
  TRACK 47 AUDIO
    TITLE "1Q_t_0249-0258_47"
    INDEX 01 01:07:64
  TRACK 48 AUDIO
    TITLE "1Q_t_0249-0258_48"
    INDEX 01 01:15:00
  TRACK 49 AUDIO
    TITLE "1Q_t_0249-0258_49"
    INDEX 01 01:15:57
  TRACK 50 AUDIO
    TITLE "1Q_t_0249-0258_50"
    INDEX 01 01:16:60
  TRACK 51 AUDIO
    TITLE "1Q_t_0249-0258_51"
    INDEX 01 01:17:03
  TRACK 52 AUDIO
    TITLE "1Q_t_0249-0258_52"
    INDEX 01 01:20:15
  TRACK 53 AUDIO
    TITLE "1Q_t_0249-0258_53"
    INDEX 01 01:20:29
  TRACK 54 AUDIO
    TITLE "1Q_t_0249-0258_54"
    INDEX 01 01:25:50
  TRACK 55 AUDIO
    TITLE "1Q_t_0249-0258_55"
    INDEX 01 01:26:28
  TRACK 56 AUDIO
    TITLE "1Q_t_0249-0258_56"
    INDEX 01 01:27:31
  TRACK 57 AUDIO
    TITLE "1Q_t_0249-0258_57"
    INDEX 01 01:27:49
  TRACK 58 AUDIO
    TITLE "1Q_t_0249-0258_58"
    INDEX 01 01:29:69
  TRACK 59 AUDIO
    TITLE "1Q_t_0249-0258_59"
    INDEX 01 01:30:08
  TRACK 60 AUDIO
    TITLE "1Q_t_0249-0258_60"
    INDEX 01 01:35:46
